<?xml version="1.0" encoding="utf-8"?>
<!-- Generator: Adobe Illustrator 19.0.0, SVG Export Plug-In . SVG Version: 6.00 Build 0)  -->
<svg version="1.1" id="Layer_1" xmlns="http://www.w3.org/2000/svg" xmlns:xlink="http://www.w3.org/1999/xlink" x="0px" y="0px"
	 viewBox="-285 408.9 24 24" style="enable-background:new -285 408.9 24 24;" xml:space="preserve">
<style type="text/css">
	.st0{fill:none;}
	.st1{fill:#E4E4E4;}
</style>
<path class="st0" d="M-285,408.9h24v24h-24V408.9z"/>
<path class="st1" d="M-268,413.9v-2h-2v2h-2v-2h-2v2h-2v-2h-2v2c-1.1,0-2,0.9-2,2h-2v2h2v2h-2v2h2v2h-2v2h2c0,1.1,0.9,2,2,2v2h2v-2
	h2v2h2v-2h2v2h2v-2c1.1,0,2-0.9,2-2h2v-2h-2v-2h2v-2h-2v-2h2v-2h-2C-266,414.8-266.9,413.9-268,413.9z M-268,419.9v6h-10v-10h10
	V419.9z"/>
</svg>
