<?xml version="1.0" encoding="utf-8"?>
<!-- Generator: Adobe Illustrator 19.0.0, SVG Export Plug-In . SVG Version: 6.00 Build 0)  -->
<svg version="1.1" id="Layer_1" xmlns="http://www.w3.org/2000/svg" xmlns:xlink="http://www.w3.org/1999/xlink" x="0px" y="0px"
	 viewBox="-285 408.9 24 24" style="enable-background:new -285 408.9 24 24;" xml:space="preserve">
<style type="text/css">
	.st0{fill:none;}
	.st1{fill:#E4E4E4;}
</style>
<path class="st0" d="M-261,408.9v24h-24v-24H-261z"/>
<path class="st1" d="M-276,413.9c-1.1,0-2,0.9-2,2h-2v2h2v2h-2v2h2v2h-2v2h2c0,1.1,0.9,2,2,2l0,0h2l0,0h-2l0,0h2l0,0h2l0,0h2l0,0
	c1.1,0,2-0.9,2-2h2v-2h-2v-2h2v-2h-2v-2h2v-2h-2c0-1.1-0.9-2-2-2 M-276,413.9h2 M-272,413.9h-2 M-274,425.9h-2v-10h6v10H-274z"/>
</svg>
